<?xml version="1.0" encoding="UTF-8"?>
<svg width="493px" height="67px" viewBox="0 0 493 67" version="1.1" xmlns="http://www.w3.org/2000/svg" xmlns:xlink="http://www.w3.org/1999/xlink">
    <!-- Generator: Sketch 47.1 (45422) - http://www.bohemiancoding.com/sketch -->
    <title>logo</title>
    <desc>Created with Sketch.</desc>
    <defs></defs>
    <g id="Page-1" stroke="none" stroke-width="1" fill="none" fill-rule="evenodd">
        <g id="cedrus" transform="translate(-474.000000, -321.000000)" fill="#FFFFFF">
            <g id="logo" transform="translate(474.000000, 321.000000)">
                <path d="M101.822128,29.1828984 L127.407677,29.1828984 C127.809004,29.1828984 128.01335,29.3851575 128.01335,29.7823872 L128.01335,36.9525654 C128.01335,37.3479729 127.809004,37.5502321 127.407677,37.5502321 L101.822128,37.5502321 L101.822128,29.1828984 Z M101.822128,57.910987 L137.159199,57.910987 C137.560526,57.910987 137.76119,58.1096018 137.76119,58.5068315 L137.76119,65.6770097 C137.76119,66.0742394 137.560526,66.2728542 137.159199,66.2728542 L93.9741497,66.2728542 C93.5728222,66.2728542 93.3721585,66.0742394 93.3721585,65.6770097 L101.822128,57.910987 Z M93.3721585,1.05612078 C93.3721585,0.65706893 93.5728222,0.458454084 93.9741497,0.458454084 L137.159199,0.458454084 C137.560526,0.458454084 137.76119,0.65706893 137.76119,1.05612078 L137.76119,8.22447677 C137.76119,8.62535077 137.560526,8.82214346 137.159199,8.82214346 L101.822128,8.82214346 L93.3721585,1.05612078 Z M270.504682,1.00892697 C270.504682,0.611697282 270.707186,0.413082436 271.108514,0.413082436 L295.536104,0.413082436 C300.856455,0.413082436 305.375992,2.29719024 309.094715,6.06358369 C312.807915,9.83362145 314.588115,14.3543869 314.431634,19.62588 C314.276994,23.8860773 312.807915,27.6524708 310.022554,30.9305268 C307.26849,34.1192973 303.816706,36.1983756 299.6672,37.1823391 L315.315291,65.4038687 C315.40918,65.584262 315.39077,65.7828768 315.267426,65.9978911 C315.17722,66.1837508 315.006011,66.2730364 314.757483,66.2730364 L306.491609,66.2730364 C306.24308,66.2730364 306.075554,66.1691736 305.981665,65.9541594 L285.572873,29.3853397 L285.617055,29.3379637 L295.536104,29.3671182 C298.413512,29.3671182 300.873024,28.3594667 302.91648,26.3332309 C304.961778,24.3124615 305.981665,21.8944624 305.981665,19.071945 C305.981665,16.2239174 304.961778,13.7858747 302.91648,11.7632831 C300.873024,9.7753125 298.413512,8.77677181 295.536104,8.77677181 L278.956492,8.77677181 L278.956492,20.4021178 L270.504682,1.00892697 Z M474.339843,28.3109974 C474.927107,28.5569883 475.376299,28.7556031 475.685579,28.9086641 L477.077339,29.5045087 C478.1635,30.0256449 479.153932,30.5158044 480.052317,30.9768095 C482.373757,32.2012974 484.339894,33.4895607 485.948886,34.8361329 C490.253031,38.4512875 492.403263,42.8499686 492.403263,48.0267096 C492.403263,53.666278 490.468423,58.1105129 486.598742,61.3575923 C482.729061,64.6374705 477.46578,66.2737653 470.810739,66.2737653 C465.92117,66.2737653 461.307745,65.2023384 456.970462,63.0558403 C455.455359,62.2905354 454.034144,61.4195456 452.699454,60.4392264 C452.206079,60.069329 451.725591,59.7048981 451.261671,59.3331786 C450.919254,59.0580333 450.611815,58.7810658 450.333831,58.5059204 C450.024551,58.2325973 450.024551,57.9428747 450.333831,57.6349306 L455.626568,52.7169354 C455.904551,52.4727667 456.184376,52.4727667 456.460519,52.7169354 C456.67591,52.900973 456.911552,53.0995879 457.15824,53.31278 C457.467519,53.5587708 457.809936,53.8029395 458.181809,54.0507526 C459.107808,54.6939731 460.112967,55.2770626 461.199129,55.7945545 C464.19988,57.2067242 467.404978,57.9100759 470.810739,57.9100759 C479.569988,57.9100759 483.953294,54.6174426 483.953294,48.0267096 C483.953294,45.4866262 482.837677,43.2654198 480.608284,41.3649126 C478.719468,39.7395507 475.484915,37.9301513 470.904627,35.9403585 L470.766556,35.8929825 L468.581346,34.8361329 L467.421546,34.3332182 L466.166017,33.7811054 C465.175585,33.3219224 464.2772,32.8773167 463.474545,32.4472882 C461.401634,31.3740392 459.636161,30.2242597 458.181809,28.9997718 C454.308446,25.7198937 452.375447,21.7239087 452.375447,17.0045285 C452.375447,11.8879185 454.124351,7.85731263 457.622159,4.91635519 C461.119968,1.94442112 465.886192,0.459365162 471.924514,0.459365162 C476.291252,0.459365162 480.407621,1.40688553 484.275461,3.30739272 C485.639606,3.98341206 486.922749,4.76147205 488.130414,5.65068347 C488.564878,5.96044974 488.997502,6.27932679 489.430126,6.61824753 C489.739406,6.89339287 490.021071,7.15578312 490.265918,7.39812968 C490.608335,7.67691933 490.608335,7.96846405 490.265918,8.27276386 L487.664653,10.7071623 L485.021046,13.190759 C484.73938,13.4367499 484.463238,13.4531492 484.185254,13.238135 C483.999318,13.0504531 483.798654,12.8682376 483.581422,12.6842 C483.301597,12.4728301 483.007045,12.2541715 482.699606,12.0391573 C481.861973,11.4906888 480.994884,11.0151065 480.0965,10.6160546 C477.528372,9.42254338 474.805604,8.82305454 471.924514,8.82305454 C464.525729,8.82305454 460.829098,11.5489977 460.829098,17.0045285 C460.829098,19.1528487 461.771665,21.0169128 463.658641,22.6131202 C465.240018,23.9615145 468.038265,25.4903022 472.064427,27.2067718 L472.204339,27.2997017 L474.339843,28.3109974 Z M181.290497,65.6775563 L189.788331,57.8641576 L202.975069,57.8641576 C209.847342,57.8641576 215.697887,55.4607358 220.526704,50.6484256 C225.386817,45.8379376 227.815033,40.0489526 227.815033,33.2760041 C227.815033,26.5030557 225.386817,20.7122485 220.526704,15.9035827 C215.697887,11.1222491 209.847342,8.73158238 202.975069,8.73158238 L189.788331,8.73158238 L189.788331,8.78260271 L181.290497,0.918183677 C181.290497,0.520953985 181.48932,0.31869483 181.892488,0.31869483 L202.975069,0.31869483 C212.292127,0.31869483 220.219265,3.6113281 226.750963,10.2057054 C233.313956,16.7909719 236.500644,24.6954784 236.316548,33.9155804 C236.128771,42.9261346 232.72301,50.5718951 226.101106,56.8528618 C219.47368,63.1338286 211.581519,66.2734008 202.419102,66.2734008 L181.892488,66.2734008 C181.48932,66.2734008 181.290497,66.074786 181.290497,65.6775563 Z M33.2035921,38.0072284 C30.5747128,38.0072284 28.4428905,35.8989956 28.4428905,33.2969589 C28.4428905,30.6949222 30.5747128,28.5848673 33.2035921,28.5848673 C34.5198726,28.5848673 35.7091275,29.1114699 36.570693,29.9642382 C37.4322585,30.8170066 37.9642936,31.9941184 37.9642936,33.2969589 C37.9642936,34.5961551 37.4322585,35.7732669 36.570693,36.6278574 C35.7091275,37.4806258 34.5198726,38.0072284 33.2035921,38.0072284 Z M50.7734526,50.6857798 L56.6718624,56.5239629 C50.6611546,62.4769418 42.3584616,66.1613383 33.203408,66.1613383 C14.8951416,66.1613383 0,51.420108 0,33.2969589 C0,15.1756319 14.8951416,0.430757335 33.203408,0.430757335 C42.3584616,0.430757335 50.6593136,4.11697599 56.6718624,10.0681327 L50.7734526,15.9063159 C46.2723253,11.4529702 40.0572718,8.69240606 33.203408,8.69240606 C19.4975213,8.69240606 8.34687579,19.7310183 8.34687579,33.2969589 C8.34687579,46.8628995 19.4975213,57.9015118 33.203408,57.9015118 C40.0572718,57.9015118 46.2723253,55.1391255 50.7734526,50.6857798 Z M381.542614,57.7768764 C381.763528,57.784165 381.980761,57.784165 382.199834,57.784165 L382.199834,66.1842975 C375.646045,66.2280292 370.00721,63.8738055 365.292532,59.1143378 C360.496852,54.3402929 358.101774,48.6096169 358.101774,41.9204875 L358.101774,0.601311001 C358.101774,0.198614846 358.300597,0 358.707447,0 L365.993935,0 C366.397103,0 366.599608,0.198614846 366.599608,0.601311001 L366.599608,42.0152396 C366.599608,46.2043729 368.030027,49.8413933 370.896389,52.9208345 C373.823503,56.00392 377.369176,57.6201711 381.542614,57.7768764 Z M405.546786,0 C405.949954,0 406.152459,0.198614846 406.152459,0.601311001 L406.152459,42.4288686 C406.152459,48.8993394 403.847587,54.4459779 399.239684,59.0706061 C398.713172,59.599031 398.171932,60.094657 397.617806,60.5647729 L397.617806,43.4510973 C397.639897,43.1139988 397.654625,42.7732559 397.654625,42.4288686 L397.654625,0.601311001 C397.654625,0.198614846 397.855289,0 398.260298,0 L405.546786,0 Z" id="Combined-Shape"></path>
            </g>
        </g>
    </g>
</svg>